<?xml version="1.0" encoding="UTF-8"?>
<svg id="Capa_2" data-name="Capa 2" xmlns="http://www.w3.org/2000/svg" viewBox="0 0 74.66 61.66">
  <defs>
    <style>
      .cls-1 {
        fill: #fff;
        stroke-width: 0px;
      }
    </style>
  </defs>
  <g id="Capa_1-2" data-name="Capa 1">
    <g>
      <path class="cls-1" d="m16.69,23.64h9.73v2.78c0,.76.63,1.39,1.39,1.39h19.47c.76,0,1.39-.63,1.39-1.39v-2.78h9.73c.76,0,1.39-.63,1.39-1.39v-4.17c0-3.14-1.75-5.88-4.32-7.3.95-1,1.54-2.34,1.54-3.82,0-3.07-2.49-5.56-5.56-5.56s-5.56,2.49-5.56,5.56c0,1.47.58,2.82,1.54,3.81-.68.38-1.31.83-1.88,1.4-.42.42-.78.88-1.1,1.36-.71-.56-1.47-1.03-2.31-1.4,1.43-1.28,2.36-3.12,2.36-5.17,0-3.84-3.12-6.95-6.95-6.95s-6.95,3.12-6.95,6.95c0,2.07.92,3.91,2.36,5.17-.83.38-1.59.88-2.29,1.43-.32-.5-.7-.97-1.11-1.39-.57-.56-1.2-1.03-1.88-1.39.95-1,1.53-2.34,1.53-3.81,0-3.07-2.49-5.56-5.56-5.56s-5.56,2.49-5.56,5.56c0,1.49.6,2.82,1.54,3.82-2.57,1.42-4.32,4.16-4.32,7.3v4.17c0,.76.63,1.39,1.39,1.39h-.01ZM51.45,4.17c1.53,0,2.78,1.25,2.78,2.78s-1.25,2.78-2.78,2.78-2.78-1.25-2.78-2.78,1.25-2.78,2.78-2.78Zm-3.95,9.97c1.06-1.04,2.46-1.63,3.95-1.63,3.07,0,5.56,2.49,5.56,5.56v2.78h-8.44c-.24-1.93-.99-3.71-2.1-5.22.26-.56.6-1.07,1.03-1.5Zm-9.96-11.36c2.29,0,4.17,1.88,4.17,4.17s-1.88,4.17-4.17,4.17-4.17-1.88-4.17-4.17,1.88-4.17,4.17-4.17Zm0,11.13c4.6,0,8.34,3.74,8.34,8.34v2.78h-16.69v-2.78c0-4.6,3.74-8.34,8.34-8.34Zm-16.69-6.95c0-1.53,1.25-2.78,2.78-2.78s2.78,1.25,2.78,2.78-1.25,2.78-2.78,2.78-2.78-1.25-2.78-2.78Zm-2.78,11.13c0-3.07,2.49-5.56,5.56-5.56,1.49,0,2.88.58,3.94,1.63.45.45.76.97,1.04,1.53-1.11,1.49-1.85,3.25-2.1,5.19h-8.44v-2.78Z"/>
      <path class="cls-1" d="m74.26,34.03c-.57-.89-1.57-1.31-2.98-1.31,1.57-2.64,1.02-4.12.45-4.81-1.28-1.57-3.91-1.36-7.87.67-.36.21-.78.49-1.21.81-.1-1.11-.46-1.92-1.13-2.43-.95-.72-2.2-.71-3.74.07-4.27,2.13-6.94,8.89-8.26,13.21-3.52,1.02-8.57,2.86-11.82,4.71-.88-.42-1.72-.81-2.57-1.15l5.69-1.14c.13-.03.25-.07.36-.13,2.8-1.45,4.58-4.3,4.24-6.79-.22-1.61-1.31-2.77-2.92-3.1-.26-.06-.53-.03-.76.06-.74.28-2.81.29-5.01.32-6.42.06-16.13.15-22.65,5.56-.83.7-1.64,1.49-2.41,2.32l-10.44,1.31c-.7.08-1.22.68-1.22,1.38v15.3c0,.75.58,1.36,1.34,1.39l36.16,1.39h.06c.19,0,.39-.04.56-.13l3.21-1.42c7.09-3.16,12.7-5.66,17.43-6.84.25-.06.47-.18.64-.36l12.52-12.52c3.42-3.42,2.93-5.44,2.35-6.34v-.03Zm-15.23-4.52c.42-.21.67-.28.79-.29.07.25.19.96-.13,2.63-2.35,2.13-4.9,4.74-6.7,6.81,1.72-4.74,3.89-8.08,6.02-9.15h.01Zm-7.97,13.18h.04c.86-.24,1.56-.39,2-.43.36-.04.71-.22.93-.51,2.82-3.49,8.68-9.25,11.17-10.72,2.61-1.34,3.95-1.43,4.34-1.34,0,.35-.28,1.35-1.64,3.03l-.71.88c-.26.1-.53.18-.81.29-3.17,1.43-9.53,6.61-12.72,9.69-2.35.1-6.38.7-9.87,1.59,2.6-1.04,5.34-1.96,7.27-2.48Zm18.89-4.28l-12.25,12.25c-4.88,1.28-10.47,3.77-17.51,6.9l-2.91,1.29-34.5-1.32v-12.74l6.42-.81c-.22.33-.46.65-.65.99-.4.65-.18,1.52.47,1.91.65.4,1.52.18,1.91-.47.75-1.24,2.38-3.62,4.92-5.72,5.77-4.77,14.88-4.87,20.92-4.92,2.42-.03,4.26-.04,5.48-.35.26.13.39.33.43.67.13.96-.6,2.75-2.6,3.85l-9.08,1.84c-1.77.35-3.21,1.63-3.77,3.34l-.72,2.17c-.24.72.15,1.52.88,1.75.14.06.29.07.45.07.58,0,1.13-.36,1.32-.95l.72-2.17c.11-.33.31-.61.54-.85,2.29.47,4.88,1.71,7.61,3.02.57.28,1.14.56,1.72.82.36.17.78.18,1.14.03,3.7-1.57,10.89-2.67,13.36-2.67.38,0,.72-.15.99-.4,3.27-3.27,9.58-8.29,12.22-9.48,2.74-1.06,4.06-1.02,4.45-.88-.04.35-.43,1.31-1.96,2.84Z"/>
    </g>
  </g>
</svg>