<?xml version="1.0" encoding="UTF-8"?>
<svg id="Capa_2" data-name="Capa 2" xmlns="http://www.w3.org/2000/svg" viewBox="0 0 75.23 80">
  <defs>
    <style>
      .cls-1 {
        fill: #fff;
        stroke-width: 0px;
      }
    </style>
  </defs>
  <g id="Capa_1-2" data-name="Capa 1">
    <g>
      <path class="cls-1" d="m48.09,44.9h-5.94c-1.04,0-1.88-.84-1.88-1.88v-5.94c0-1.04.84-1.88,1.88-1.88h5.94c1.04,0,1.88.84,1.88,1.88v5.94c0,1.04-.84,1.88-1.88,1.88Zm-5.48-2.34h5.02v-5.02h-5.02v5.02Zm5.48-5.02h0,0Z"/>
      <path class="cls-1" d="m57.31,9.71h-5.94c-1.04,0-1.88-.84-1.88-1.88V1.88c0-1.04.84-1.88,1.88-1.88h5.94c1.04,0,1.88.84,1.88,1.88v5.94c0,1.04-.84,1.88-1.88,1.88Zm-5.48-2.34h5.02V2.34h-5.02v5.02Zm5.48-5.02h0,0Z"/>
      <path class="cls-1" d="m69.9,37.85h-5.94c-1.04,0-1.88-.84-1.88-1.88v-5.94c0-1.04.84-1.88,1.88-1.88h5.94c.5,0,.98.2,1.33.55s.55.83.55,1.33v5.94c0,1.04-.84,1.88-1.88,1.88Zm-5.48-2.34h5.02v-5.02h-5.02v5.02Zm5.48-5.02h0,0Z"/>
      <path class="cls-1" d="m73.35,23.54h-10.34c-1.04,0-1.88-.84-1.88-1.88v-10.34c0-1.04.84-1.88,1.88-1.88h10.34c1.04,0,1.88.84,1.88,1.88v10.34c0,1.04-.84,1.88-1.88,1.88Zm-9.88-2.34h9.42v-9.42h-9.42v9.42Zm9.88-9.42h0,0Z"/>
      <path class="cls-1" d="m31.54,56.03c-4.17,0-7.56-3.39-7.56-7.56s3.39-7.56,7.56-7.56,7.56,3.39,7.56,7.56-3.39,7.56-7.56,7.56Zm0-12.78c-2.88,0-5.22,2.34-5.22,5.22s2.34,5.22,5.22,5.22,5.22-2.34,5.22-5.22-2.34-5.22-5.22-5.22Z"/>
      <path class="cls-1" d="m56.48,31.82h-11.59c-1.04,0-1.88-.84-1.88-1.88v-11.59c0-1.04.84-1.88,1.88-1.88h11.59c1.04,0,1.88.84,1.88,1.88v11.59c0,1.04-.84,1.88-1.88,1.88Zm-11.13-2.34h10.67v-10.67h-10.67v10.67Z"/>
      <path class="cls-1" d="m35.41,80h-7.73c-1.55,0-2.81-1.26-2.81-2.81v-4.16c0-.2-.14-.39-.33-.44-1.77-.51-3.49-1.23-5.11-2.12-.18-.1-.41-.07-.55.08l-2.94,2.94c-1.09,1.09-2.87,1.09-3.97,0l-5.46-5.46c-.53-.53-.82-1.23-.82-1.98s.29-1.45.82-1.98l2.94-2.94c.15-.15.18-.37.08-.55-.89-1.62-1.6-3.34-2.12-5.11-.06-.2-.24-.33-.44-.33H2.81c-1.55,0-2.81-1.26-2.81-2.81v-7.73c0-1.55,1.26-2.81,2.81-2.81h4.16c.2,0,.39-.14.44-.33.51-1.77,1.23-3.49,2.12-5.11.1-.18.07-.4-.08-.55l-2.94-2.94c-1.09-1.09-1.09-2.87,0-3.97l5.46-5.46c.53-.53,1.23-.82,1.98-.82s1.45.29,1.98.82l2.94,2.94c.15.15.37.18.55.08,1.62-.89,3.34-1.61,5.11-2.12.2-.06.33-.24.33-.44v-4.16c0-1.55,1.26-2.81,2.81-2.81h7.73c1.55,0,2.81,1.26,2.81,2.81v12.86c0,.62-.29,1.19-.78,1.56-.5.37-1.13.48-1.73.31-1.34-.4-2.74-.6-4.16-.6-3.94,0-7.64,1.55-10.4,4.35-2.77,2.81-4.26,6.52-4.21,10.47.11,7.83,6.57,14.29,14.4,14.4.07,0,.14,0,.21,0,7.83,0,14.22-6.07,14.59-13.91.05-1.05.9-1.87,1.95-1.87h3.86v-3.55c0-1.08.88-1.95,1.95-1.95h6.39c1.55,0,2.81,1.26,2.81,2.81v7.73c0,1.55-1.26,2.81-2.81,2.81h-4.16c-.2,0-.39.14-.44.33-.51,1.77-1.23,3.49-2.12,5.11-.1.18-.07.4.08.55l2.94,2.94c1.09,1.09,1.09,2.87,0,3.97l-5.46,5.46c-1.09,1.09-2.87,1.09-3.97,0l-2.94-2.94c-.15-.15-.37-.18-.55-.08-1.62.89-3.34,1.61-5.11,2.12-.2.06-.33.24-.33.44v4.16c0,1.55-1.26,2.81-2.81,2.81Zm-16.2-11.92c.46,0,.93.11,1.35.35,1.47.81,3.02,1.45,4.63,1.92,1.19.35,2.03,1.45,2.03,2.69v4.16c0,.25.21.46.46.46h7.73c.25,0,.46-.21.46-.46v-4.16c0-1.24.83-2.35,2.03-2.69,1.6-.46,3.16-1.11,4.63-1.92,1.09-.6,2.46-.41,3.34.47l2.94,2.94c.12.12.25.14.33.14s.21-.02.33-.14l5.46-5.46c.18-.18.18-.47,0-.65l-2.94-2.94c-.88-.88-1.07-2.25-.47-3.34.81-1.47,1.45-3.02,1.92-4.63.35-1.19,1.45-2.03,2.69-2.03h4.16c.25,0,.46-.21.46-.46v-7.73c0-.25-.21-.46-.46-.46h-5.99v3.55c0,1.08-.88,1.95-1.95,1.95h-3.88c-.29,4.26-2.16,8.21-5.28,11.16-3.22,3.04-7.44,4.69-11.88,4.62-4.42-.06-8.58-1.83-11.73-4.98-3.15-3.15-4.92-7.32-4.98-11.73-.06-4.58,1.67-8.89,4.88-12.14,3.21-3.26,7.5-5.05,12.07-5.05,1.47,0,2.92.19,4.33.56v-12.34c0-.25-.21-.46-.46-.46h-7.73c-.25,0-.46.21-.46.46v4.16c0,1.24-.83,2.35-2.03,2.69-1.6.46-3.16,1.11-4.63,1.92-1.09.6-2.46.41-3.34-.47l-2.94-2.94c-.12-.12-.25-.14-.33-.14s-.21.02-.33.14l-5.46,5.46c-.12.12-.14.25-.14.33s.02.21.14.33l2.94,2.94c.88.88,1.07,2.25.47,3.34-.81,1.47-1.45,3.03-1.92,4.63-.35,1.19-1.45,2.03-2.69,2.03H2.81c-.25,0-.46.21-.46.46v7.73c0,.25.21.46.46.46h4.16c1.24,0,2.35.83,2.69,2.03.46,1.6,1.11,3.16,1.92,4.63.6,1.09.41,2.46-.47,3.34l-2.94,2.94c-.18.18-.18.47,0,.65l5.46,5.46c.12.12.25.14.33.14s.21-.02.33-.14l2.94-2.94c.54-.54,1.26-.82,1.99-.82Z"/>
    </g>
  </g>
</svg>