<?xml version="1.0" encoding="UTF-8"?>
<svg id="Capa_2" data-name="Capa 2" xmlns="http://www.w3.org/2000/svg" viewBox="0 0 81.5 78.58">
  <defs>
    <style>
      .cls-1 {
        fill: #fff;
        stroke-width: 0px;
      }
    </style>
  </defs>
  <g id="Capa_1-2" data-name="Capa 1">
    <path class="cls-1" d="m12.22,13.48l2.61,5.39,5.91.8c1.17.16,1.59,1.61.79,2.38l-4.32,4.15,1.07,5.88c.21,1.15-1.01,2.03-2.03,1.47l-5.27-2.83-5.27,2.83c-1.01.54-2.29-.3-2.01-1.56l1.05-5.81L.43,22.04c-.84-.8-.38-2.24.8-2.4l5.9-.8,2.61-5.39c.49-1.03,1.99-1.01,2.48.03h0Zm.42,7.28l-1.66-3.46-1.68,3.46c-.19.4-.59.72-1.07.79l-3.8.51,2.78,2.66c.31.31.49.77.4,1.24l-.68,3.78,3.36-1.8c.4-.21.91-.24,1.33,0l3.38,1.82-.66-3.71c-.1-.45.02-.96.38-1.33l2.78-2.66-3.76-.51c-.45-.05-.89-.35-1.1-.79h0ZM42,.79l2.61,5.39,5.93.8c1.17.16,1.59,1.61.79,2.4l-4.32,4.15,1.07,5.88c.21,1.15-1.01,2.03-2.03,1.47l-5.3-2.83-5.27,2.83c-1.01.54-2.29-.3-2.01-1.56l1.05-5.81-4.34-4.15c-.84-.8-.38-2.24.8-2.4l5.9-.8,2.61-5.37c.52-1.07,2.01-1.05,2.52,0h0Zm.42,7.28l-1.68-3.46-1.66,3.46c-.19.4-.59.72-1.07.79l-3.81.51,2.78,2.66c.33.31.49.77.4,1.24l-.68,3.78,3.38-1.8c.4-.21.89-.24,1.33,0l3.38,1.82-.66-3.71c-.1-.45.02-.96.38-1.33l2.78-2.66-3.76-.52c-.47-.03-.89-.33-1.1-.77Zm29.34,5.41l2.61,5.39,5.91.8c1.17.16,1.61,1.61.79,2.38l-4.32,4.15,1.07,5.88c.21,1.15-1.01,2.03-2.03,1.47l-5.27-2.83-5.27,2.83c-1.01.54-2.29-.3-2.03-1.56l1.05-5.81-4.32-4.15c-.84-.8-.38-2.24.8-2.4l5.9-.8,2.61-5.39c.51-1.03,2.01-1.01,2.5.03h0Zm.42,7.28l-1.66-3.46-1.68,3.46c-.19.4-.58.72-1.07.79l-3.8.51,2.76,2.66c.31.31.49.77.4,1.24l-.68,3.78,3.38-1.8c.4-.21.91-.24,1.33,0l3.39,1.82-.66-3.71c-.1-.45.02-.96.38-1.33l2.76-2.66-3.76-.51c-.45-.05-.89-.35-1.1-.79h0Zm-37.93,28.45c-.38-.66-.16-1.52.51-1.91s1.52-.16,1.91.51l1.84,3.18,6.53-6.53c.54-.54,1.43-.54,1.98,0s.54,1.43,0,1.98l-7.82,7.82c-.65.65-1.73.51-2.19-.28l-2.75-4.78Zm6.49-14.79c7.61,0,13.79,6.18,13.79,13.79s-6.18,13.79-13.79,13.79-13.79-6.18-13.79-13.79,6.18-13.79,13.79-13.79h0Zm7.77,6.02c-4.29-4.29-11.25-4.29-15.54,0-4.29,4.29-4.29,11.25,0,15.54,4.29,4.29,11.25,4.29,15.54,0,4.29-4.3,4.29-11.25,0-15.54h0Zm-7.77-14.68c12.39,0,22.43,10.04,22.43,22.43,0,4.69-1.43,9.05-3.9,12.65l6.7,11.6c.65,1.08-.24,2.31-1.4,2.13l-6.86-1.08-3.67,4.51c-.65.84-1.85.7-2.33-.14l-4.69-8.12c-4.09,1.19-8.49,1.19-12.56,0l-4.69,8.12c-.47.84-1.68.98-2.33.14l-3.67-4.51-6.86,1.08c-1.17.19-1.99-1.08-1.43-2.08l6.74-11.65c-6.09-8.91-4.95-20.89,2.68-28.52,4.04-4.04,9.66-6.56,15.85-6.56Zm16.68,37.45c-2.13,2.38-4.76,4.29-7.73,5.58l3.43,5.93,2.94-3.6c.33-.42.84-.58,1.33-.49l4.72.75-4.69-8.17Zm-25.63,5.58c-2.96-1.29-5.58-3.2-7.72-5.56l-4.71,8.15,4.72-.75c.47-.09,1,.09,1.33.49l2.94,3.6,3.43-5.93Zm22.85-34.47c-7.66-7.66-20.1-7.66-27.77,0-7.66,7.66-7.66,20.1,0,27.77,7.68,7.66,20.1,7.66,27.77,0s7.66-20.1,0-27.77h0Z"/>
  </g>
</svg>