<?xml version="1.0" encoding="UTF-8"?>
<svg id="Capa_2" data-name="Capa 2" xmlns="http://www.w3.org/2000/svg" viewBox="0 0 321.21 174.05">
  <defs>
    <style>
      .cls-1 {
        fill: #696969;
      }

      .cls-1, .cls-2 {
        stroke-width: 0px;
      }

      .cls-2 {
        fill: #6d0a8f;
      }
    </style>
  </defs>
  <g id="Capa_1-2" data-name="Capa 1">
    <g>
      <path class="cls-2" d="m263.66.07l54.78,23.55c.15.07.22.25.15.39-.02.05-.06.1-.11.13-18.74,11.52-34.86,21.21-50.67,32.34-.23.17-.53.2-.8.08l-53.55-23.74c-.39-.17-.41-.38-.05-.61L262.91.13c.22-.14.51-.17.75-.06Zm35.96,25.67c.16-.1.21-.31.1-.47-.04-.06-.09-.1-.15-.13l-36.03-15.49c-.1-.04-.23-.03-.32.03l-32.59,21.15c-.16.1-.2.31-.1.47.03.05.08.09.14.12l35.15,15.57c.1.04.23.03.32-.03l33.48-21.22Z"/>
      <path class="cls-2" d="m68.99,157.81c-3.01,8.65-9.4,13.65-19.17,15-11.16,1.55-22.57,1.59-34.22.13-17.16-2.15-16.55-15.99-14.7-29.07,3.21-22.63,6.43-45.26,9.66-67.89.51-3.58,1.32-7.15,2.42-10.71,4.62-14.98,17.48-16.62,31.23-16.94,7.39-.17,14.44.05,21.14.68,7.77.73,15.2,4.06,16.45,12.68.6,4.15.6,8.43.01,12.85-2.9,21.64-6.34,45.99-10.31,73.06-.5,3.43-1.34,6.83-2.51,10.21Zm-39.94-11.63c-.32,2.3,1.28,4.43,3.59,4.75.24.03.49.05.73.04l5.88-.21c2.04-.07,3.74-1.6,4.02-3.62l9.99-71.13c.32-2.3-1.28-4.43-3.58-4.76-.27-.04-.54-.05-.82-.03l-5.89.33c-2.01.11-3.65,1.63-3.93,3.62l-9.99,71.01Z"/>
      <path class="cls-2" d="m174.49,150.06c3.13.93,6.23.89,9.29-.13.44-.15.79-.46.99-.87.67-1.41,1.12-2.89,1.35-4.44.66-4.47,1.2-8.56,1.62-12.26.33-2.97-.83-5.06-3.49-6.25-6.58-2.94-15.32-5.44-22.63-9.15-8.69-4.41-11.37-11.42-10.15-21.02.99-7.75,2.07-15.14,3.24-22.15,2.75-16.44,9.48-23.71,26.25-25.01,10.03-.78,19.27-.63,27.72.46,8.03,1.03,14.92,5.02,15.62,13.87.72,9.05-.96,18.47-2.35,27.53-.06.41-.3.61-.71.61h-27.54c-.4,0-.57-.2-.52-.6.67-4.61,1.32-9.35,1.97-14.2.16-1.21.03-2.38-.39-3.5-.11-.31-.32-.52-.62-.64-3.52-1.4-10.28-1.61-11.05,3.45-.4,2.6-.8,5.21-1.21,7.82-.72,4.65-.92,8.93,4.31,11.02,6.57,2.63,13.16,5.19,19.77,7.7,10.49,3.97,13.13,10.61,11.8,21.39-1.02,8.29-2.24,16.56-3.66,24.8-.77,4.45-1.96,8.5-3.55,12.17-3.68,8.45-12.05,11.71-20.78,12.6-10.41,1.05-23.36,1.38-33.69-1.04-7.43-1.74-11.45-6.19-12.07-13.36-.76-8.87.95-17.65,2.34-27.44.06-.4.29-.6.7-.6h27.58c.41.01.58.21.53.61-.76,5.37-1.41,10.15-1.96,14.36-.14,1.07-.05,2.16.27,3.25.14.49.53.88,1.02,1.02Z"/>
      <path class="cls-2" d="m115.1,97.63h26.74c.18,0,.33.15.33.34,0,.02,0,.04,0,.05l-3.29,23.5c-.02.16-.17.28-.33.28h-26.92c-.16,0-.31.12-.33.28l-3.81,26.64c-.03.18.1.35.28.38.02,0,.04,0,.05,0h29.93c.18,0,.33.14.33.33,0,.02,0,.04,0,.05l-3.27,23.46c-.02.16-.17.28-.33.28h-58.27c-.18,0-.33-.15-.33-.34,0-.02,0-.04,0-.05l17.3-123.57c.02-.16.17-.28.33-.28h58.26c.18,0,.33.15.33.34,0,.02,0,.04,0,.05l-3.28,23.49c-.02.16-.17.28-.33.28h-30.12c-.17,0-.31.12-.33.29l-3.27,23.83c-.02.18.11.35.29.37.01,0,.03,0,.04,0Z"/>
    </g>
    <g>
      <path class="cls-1" d="m312.07,46.21c-9.7,6.17-19.44,12.72-29.22,19.65-.01.02-.04.02-.06,0,0,0-.01-.02-.01-.03-.13-2.79-.22-5.87-.25-9.22,0-.15.07-.29.2-.38,9.08-6.28,18.33-12.34,27.75-18.19.27-.17.61-.18.9-.04l9.29,4.65c.41.21.58.53.53.98-1.19,10.85-2.39,22.19-3.59,34.01-.43,4.29-3.21,8.49-4.88,12.37-.53,1.23-1.42,2.3-2.65,3.19-8.81,6.41-17.56,13.23-26.23,20.46-.01.02-.04.02-.06,0,0,0-.01-.02-.01-.03-.13-3.17-.2-6.25-.21-9.22,0-.16.07-.31.2-.41,8.39-6.75,16.87-13.18,25.43-19.29.35-.26.55-.61.59-1.05l2.92-37.07c.04-.55-.17-.68-.64-.38Z"/>
      <path class="cls-1" d="m261.38,106.69l-1.45-12.94c-.05-.43-.27-.74-.66-.94l-26.13-13.23c-.11-.05-.15-.14-.14-.25l.83-7.8c.01-.17.09-.21.24-.14l24.24,12.05c.32.16.46.06.42-.3l-1.48-13.02c-.04-.4-.29-.74-.66-.91l-22.7-10.33c-.39-.18-.63-.48-.72-.89-.88-3.75-2.45-7.16-4.89-10.07-.41-.48-.32-.6.26-.35,12.12,5.21,23.95,10.65,35.5,16.33.33.16.5.42.53.78l4.76,56.05c.01.13-.09.25-.22.26-.05,0-.11,0-.16-.04-12.69-7.94-25.54-15.16-38.55-21.66-.16-.08-.23-.21-.2-.39l1.06-7.39c.02-.07.08-.12.15-.1.01,0,.02,0,.03.01,9.95,4.91,19.72,10.14,29.29,15.69.5.29.72.15.65-.42Z"/>
      <path class="cls-1" d="m275.61,120.08l-3.24-56.43c0-.11.05-.22.14-.29l7.09-4.95c.15-.11.35-.07.46.08.04.05.06.12.06.18l1.69,56.55c0,.1-.04.2-.12.26l-5.53,4.83c-.14.12-.34.11-.47-.03-.05-.06-.08-.13-.08-.2Z"/>
    </g>
  </g>
</svg>