<?xml version="1.0" encoding="UTF-8"?>
<svg id="Capa_2" data-name="Capa 2" xmlns="http://www.w3.org/2000/svg" viewBox="0 0 1908.21 1033.98">
  <defs>
    <style>
      .cls-1 {
        fill: #6b4677;
        stroke-width: 0px;
      }
    </style>
  </defs>
  <g id="Capa_1-2" data-name="Capa 1">
    <g>
      <path class="cls-1" d="m1656.37,39.61l246.13,105.88c.12.05.16.19.11.31-.02.04-.05.07-.08.09-71.47,44.64-142.98,89.27-214.55,133.89-5.95,3.71-11.46,7.27-16.55,10.69-27.08,18.21-54.16,36.61-81.25,55.19-.42.29-.96.34-1.42.13l-40.28-17.88-290.55-128.76c-.49-.22-.51-.48-.06-.77L1563.61.15c.27-.17.54-.19.83-.07l91.93,39.53Zm-106.97,284.22l39.22,17.33c.31.13.61.11.89-.08,24.72-16.83,49.47-33.66,74.26-50.51,5.89-4.01,11.82-7.87,17.79-11.59,70.54-44.03,141.2-88.12,211.97-132.27.17-.1.22-.33.12-.49-.04-.07-.1-.12-.17-.15l-200.19-86.1-128.49-55.25c-.27-.12-.54-.1-.79.06l-297.58,192.98c-.17.11-.21.33-.1.5.04.06.09.1.15.13l282.92,125.44Z"/>
      <path class="cls-1" d="m1670.46,107.04l112.13,48.16c.61.26.64.57.08.93-50.11,31.69-100.34,63.46-150.7,95.32-16.81,10.63-33.3,21.86-49.75,32.99-.29.21-.61.24-.94.09l-11.29-5.02-201.92-89.42c-.13-.05-.2-.21-.14-.34.02-.05.06-.09.1-.12l196.37-127.45c.43-.28.97-.33,1.44-.13l104.62,44.99Zm-293.75,82.36l204.13,90.44c.37.17.8.13,1.13-.1,18.66-12.87,38.47-25.92,59.43-39.15,44.71-28.23,88.99-56.22,132.82-83.97.15-.1.19-.29.1-.44-.03-.05-.08-.09-.14-.12l-208.31-89.5c-.26-.11-.56-.09-.8.07l-188.4,122.31c-.12.08-.16.24-.08.36.03.05.07.08.12.1Z"/>
      <path class="cls-1" d="m1908.21,255.27v4.49l-60.76-30.4c-.45-.23-.89-.21-1.32.06-56.47,35.37-112.18,71.93-167.15,109.7-.27.19-.44.5-.43.83l1.24,55.65c0,.1.09.19.19.19.04,0,.07-.01.11-.04,58.15-41.15,117.18-81.06,177.26-119.12.45-.29.65-.16.61.37l-17.91,227.23c-.04.53-.31,1.02-.74,1.32-51.42,36.7-102.54,75.45-153.36,116.25-.37.29-.69.62-.98.98-.21.27-.31.57-.3.91l1.21,55.29c0,.13.11.24.24.24.06,0,.12-.02.16-.06,53.35-44.55,108.34-87.4,164.95-128.55.5-.35.9-.83,1.16-1.39l32.11-68.23c.2-.44.33-.9.38-1.37,7.71-72.6,15.39-145.26,23.04-217.98,0-.03,0-.05-.02-.07-.01-.03-.03-.03-.05-.02-.01.01-.02.04-.01.09.02,1.39.14,2.77.37,4.15v33.26c-6.47,59.83-12.85,119.64-19.13,179.44-.21,2.03-.73,3.92-1.56,5.67-10.94,23.17-21.6,45.81-31.97,67.9-.22.45-.54.84-.94,1.14-59.15,42.97-116.53,87.8-172.14,134.5-.12.1-.3.08-.39-.03-.04-.05-.06-.11-.07-.18l-1.48-66.01c0-.33.14-.64.39-.85,50.48-40.68,102.02-79.81,154.62-117.39.35-.25.55-.59.58-1.02l17.13-217.46c.03-.44-.13-.54-.5-.31-13.47,8.6-26.8,17.24-39.98,25.91-.65.43-1.01.9-1.44,1.52-.19.27-.48.47-.8.57-1.22.37-2.43.95-3.64,1.74-44.63,29.34-88.18,59.12-130.67,89.34-.1.07-.24.05-.31-.05-.03-.04-.04-.08-.04-.13l-1.43-65.44c0-.43.17-.77.52-1.02,56.07-38.56,113.09-75.97,171.06-112.24.29-.18.58-.19.89-.04l61.3,30.66Z"/>
      <path class="cls-1" d="m1534.48,362.72c12.46,6.02,24.9,12.09,37.32,18.22,1.1.54,2,.52,3.19.48.39-.02.61.17.64.56l29.2,343.53c.04.5-.16.87-.6,1.1l-3.05,1.63c-.49.25-.96.23-1.42-.06-30.71-19.43-61.81-38.18-93.32-56.27-33.57-19.32-59.92-33.94-79.04-43.85-20.97-10.87-41.99-21.75-63.06-32.62-.31-.16-.44-.41-.39-.76l7.55-53.72c.05-.31.21-.4.5-.26,59.67,29.47,118.54,60.86,176.61,94.19.1.06.22.02.27-.07.02-.04.03-.08.03-.12l-8.3-73.53c-.02-.24-.17-.46-.39-.58-26.12-14.19-52.35-28.37-78.98-41.5-27.31-13.47-54.14-26.67-80.49-39.6-.32-.16-.51-.51-.46-.87,2.72-18.73,4.65-37.6,5.79-56.63,0-.1.1-.18.2-.18.02,0,.05,0,.07.02,28.49,13.83,55.81,27.19,81.97,40.06,20.2,9.94,41.55,20.8,64.06,32.57.22.11.49.03.6-.19.04-.08.06-.16.05-.25l-8.3-73.35c-.03-.29-.21-.54-.47-.68-4.37-2.26-8.56-4.3-12.56-6.13-42.21-19.27-84.8-38.66-127.76-58.16-.49-.22-.85-.68-.95-1.21-4.15-21.79-12.27-40.72-24.35-56.79-6.29-8.37-14.02-16.05-21.34-23.97-.59-.64-.48-.78.31-.43,9.43,4.16,19.12,8.7,28.31,12.65,56.71,24.43,112.9,50.02,168.56,76.77Zm19.38,279.5c.01.13-.08.25-.21.26-.05,0-.1,0-.14-.03-58.2-33.63-117.65-65.5-178.36-95.6-.22-.11-.35-.04-.38.2l-6.38,45.44c-.04.28.07.49.33.62,22.67,11.67,45.69,23.33,68.35,35.51,55.71,29.93,110.06,61.56,163.03,94.89.14.08.32.04.4-.1.03-.05.05-.11.04-.17l-28.71-337.22c-.03-.36-.21-.62-.54-.78-71.51-35.31-143.9-68.6-217.17-99.86-.35-.15-.4-.09-.14.2,12.49,13.8,21.68,29.56,27.59,47.28,2.11,6.31,3.81,12.63,5.11,18.95.09.48.41.88.85,1.07,43.41,19.57,86.22,39.1,128.41,58.58,3.57,1.65,7.62,3.58,12.13,5.81.28.14.44.37.47.68l9.43,83.54c.02.16-.1.3-.26.32-.06,0-.11,0-.16-.03-51.36-26.87-97.96-49.51-147.45-73.55-.12-.05-.25,0-.3.11-.01.03-.02.05-.02.08-1.16,16.29-2.83,32.25-5.01,47.9-.05.39.1.67.45.84,26.43,12.91,52.67,25.82,78.72,38.73,22.24,11.03,48.92,25.08,80.03,42.16.28.15.44.39.47.7l9.42,83.47Z"/>
      <path class="cls-1" d="m295.83,1033.98h-4.37c-7.34-.15-14.68-.27-22.02-.36-.09,0-.13-.04-.13-.13,0-.03.01-.06.04-.09.08-.09.18-.14.29-.13,2,.03,3.65-.03,4.94-.16,22.02-2.35,43.67-5.99,64.59-14,29.53-11.31,51.2-30.89,65.01-58.74,3.54-7.14,6.48-14.22,8.82-21.24,6.91-20.74,12.09-42.42,15.54-65.03,1.77-11.61,3.45-23.05,5.04-34.31,17.12-121.26,34.25-242.52,51.39-363.78,3.07-21.72,5.27-43.6,5.88-65.32,1.01-35.5-3.15-72.52-34.93-94.02-17.03-11.53-38.17-17.09-58.75-19.9-18.12-2.48-36.27-4.04-54.46-4.67-35.91-1.26-70.57-.94-103.99.95-13.1.74-26.22,2.07-39.37,3.99-24.39,3.55-48.2,10.04-68.92,23.75-22.27,14.74-37.46,36.81-46.81,62.6-9.36,25.78-14.79,52.97-18.7,80.67-18.52,131.19-37.03,262.23-55.54,393.12-2.87,20.25-4.56,39.42-5.09,57.5-.31,10.43-.04,20.56.81,30.37,2.08,24.2,11.09,46.37,29.72,61.54,12.62,10.27,28.65,16.84,44.47,20.53,10.99,2.57,22.76,4.54,35.29,5.93,1.95.21,3.88.31,5.81.29.09,0,.13.04.14.13h0c0,.1-.04.14-.13.15-2.71.14-5.43.18-8.15.11h-21.58c-17.89-3.23-35.3-8.56-50.56-18.25-21.68-13.76-34.06-35.62-38.06-61.28-1.82-11.7-2.27-24.76-1.96-36.81.51-19.58,2.04-38.38,4.58-56.41,18.61-131.87,37.25-263.74,55.9-395.6,2.8-19.8,6.43-39.44,11.44-58.61,5.14-19.7,12.16-39.4,23.44-56.5,14.13-21.4,33.82-36.85,59.07-46.35,23.3-8.77,47.63-12.2,72.58-14.17,18.09-1.43,34.56-2.17,49.41-2.23,25.06-.11,50.39-.41,75.15.81,19.36.95,37.81,2.92,55.34,5.89,22.84,3.87,46.23,12.18,62.48,28.27,19.85,19.67,25.08,46.97,25.45,73.98.31,22.99-1.19,46.26-4.5,69.81-18.48,131.45-37.23,264.27-56.26,398.45-2.6,18.32-6.12,36.07-10.55,53.26-4.37,16.96-9.93,33.84-18.3,49.07-11.1,20.17-26.19,35.71-45.26,46.62-16.95,9.68-36.69,16.01-56.11,19.49-1.89.33-4.59.6-8.12.81Z"/>
      <path class="cls-1" d="m1147.17,287.49c35.67-.35,71.53,1.2,106.46,7.79,16.93,3.19,34.89,9.7,48.63,19.19,24.68,17.05,34.42,43.85,35.98,73.01,1.44,26.77-.66,55.25-4.34,81.79-3.66,26.4-7.44,53.26-11.35,80.57-.03.19-.19.33-.38.33l-177.75.03c-.24,0-.44-.2-.44-.44,0-.02,0-.04,0-.07,4.89-35.07,9.17-66.36,12.83-93.85.74-5.59.35-10.41-1.18-14.46-1.89-5-9.79-7.05-14.48-7.51-8.5-.82-16.87-.84-25.12-.07-3.2.3-6.45,1.1-9.74,2.4-4.16,1.65-6.94,3.74-9.1,7.76-2.54,4.71-4.22,9.81-5.05,15.3-2.45,16.28-4.74,32.25-6.88,47.92-1.14,8.37-1.53,16.72-1.17,25.07.56,12.77,8.24,21.63,19.18,27.14,7.73,3.89,16.44,7.7,26.11,11.41,26.59,10.2,53.5,20.46,80.74,30.77,15.17,5.75,28.86,11.72,41.09,17.92,17.46,8.84,31.89,22.95,39.83,41.02,5.8,13.18,8.89,28.4,9.34,43.15.43,13.79-.27,27.14-2.1,40.06-5.42,38.33-10.9,76.37-16.44,114.1-2.98,20.32-7.06,40.56-12.24,60.73-4.37,17.01-9.29,31.25-14.76,42.74-11.9,24.95-30.27,43.88-54.47,55.92-15.39,7.65-31.8,12.56-48.47,15.74-3.37.64-7.19.93-11.48.88-6.31-.08-12.99-.08-20.06.01-.05,0-.07-.02-.07-.07v-.25c-.02-.18.06-.28.24-.3,34.14-3.82,67.5-9.92,95.26-30.19,24.83-18.12,37.94-44.11,46.37-73.06,7.13-24.49,12.29-49.82,16.03-75.38,6-40.99,11.37-78.4,16.12-112.21,1.62-11.54,2.29-24.09,2.02-37.64-.32-15.66-3.88-33.19-11.25-47.12-10.2-19.3-26.4-30.79-46.08-39.58-10.79-4.82-20.36-8.82-28.73-12-25.32-9.63-50.51-19.21-75.57-28.74-7.67-2.92-15.77-6.22-24.28-9.91-13.55-5.86-26.52-13.57-29.59-28.7-2.08-10.21-.99-22.45.43-32.72,1.96-14.14,4.07-29,6.33-44.57,1.18-8.2,3.53-17.87,9.06-23.84,5.15-5.57,15.21-7.93,22.75-8.22,5.59-.22,11.39-.23,17.4-.02,5.19.18,10.11,1.21,14.76,3.08,4.8,1.93,7.75,5.25,8.82,10.34,1.1,5.24.95,10.65.25,15.84-3.91,29.11-7.89,58.14-11.94,87.1-.02.16.09.32.26.34.01,0,.03,0,.04,0l169.53.02c.26,0,.48-.19.52-.45,3.85-26.99,7.54-53.33,11.06-79,3.46-25.24,5.55-52.85,4.01-79.43-2-34.39-15.34-61.82-47.39-76.92-11.28-5.31-23.8-9.2-37.56-11.66-16.79-2.99-34.45-4.97-52.98-5.92-32.53-1.67-65.28-1.64-98.25.09-11.97.63-24.39,1.77-37.25,3.42-33.05,4.23-65.83,13.15-90.54,35.32-16.38,14.69-27.46,33.31-34.81,54.16-7.19,20.37-12.64,42.84-16.35,67.41-6.19,40.96-11.86,80.21-17.03,117.76-1.18,8.58-1.81,18.05-1.88,28.4-.11,15.25,2.46,29.95,7.71,44.09,7.52,20.28,21.92,36.77,40.68,47.64,5.03,2.91,10.54,5.81,16.54,8.69,14.88,7.13,29.26,13.59,44.56,19.22,16.72,6.16,33.44,12.32,50.16,18.48,6.22,2.29,12.24,4.76,18.05,7.41,6.3,2.87,12.52,5.65,18.67,8.34,5.15,2.26,9.83,5.88,14.02,10.86,8.04,9.54,7.23,23.22,5.48,35.65-3.49,24.73-6.7,47.43-9.65,68.1-.9,6.32-2.72,12.87-5.71,18.6-4.45,8.49-14.95,11.63-24.02,12.05-8.21.37-16.37.37-24.5-.02-6.2-.3-15.61-2.44-19.31-7.97-3.49-5.21-3.4-13.94-2.61-19.93,3.85-28.94,7.86-58.57,12.04-88.9.06-.38-.21-.73-.58-.78-.03,0-.06,0-.1,0h-169.26c-.18.01-.28.1-.31.28-3.33,24.04-6.7,48.28-10.09,72.72-3.77,27.1-6.06,53.64-5.3,80.9.42,15.2,2.7,30.42,8.79,44.23,12.89,29.21,40.87,43.11,71.37,49.34,11.88,2.43,23.49,4.16,34.83,5.19.13.01.2.09.19.22h0c-.01.15-.09.22-.22.21-4.35-.21-8.71-.16-13.06.15h-4.32l-10.38-.27c-14.37-2.25-28.09-6.36-41.14-12.33-30.06-13.76-45.79-39.93-49.17-72.7-1.46-14.11-1.65-29.89-.58-47.32.88-14.32,2.23-28.17,4.05-41.54,3.75-27.52,7.55-55.03,11.42-82.53.04-.34.34-.59.68-.59h125.67l51.71-.02c.29,0,.53.24.52.54,0,.02,0,.04,0,.06-4.03,29.84-8.14,60.02-12.32,90.55-.91,6.66-2.41,19.27,4.77,23.03,4.17,2.17,9.17,3.34,15.02,3.51,7.15.21,14.14.19,20.96-.04,6.09-.21,15.07-1.99,19.29-6.74,4.67-5.25,6.72-14.33,7.7-21.15,3.35-23.28,6.69-47.1,10.03-71.46,1.19-8.67,1.28-18.43-3.4-26.06-3.82-6.23-10.11-10.41-16.72-13.27-5.72-2.47-11.51-5.02-17.38-7.66-5.49-2.47-11.33-4.84-17.5-7.12-14.39-5.31-28.77-10.62-43.15-15.92-19.77-7.15-38.99-15.49-57.68-25.02-7.55-3.85-13.33-7.16-17.32-9.93-14.85-10.27-25.98-23.8-33.4-40.57-11.83-26.74-11.25-56.05-7.15-85.37,5.65-40.47,11.17-78.28,16.56-113.42,3.65-23.84,8.98-45.72,15.97-65.63,11.9-33.88,32.59-60.45,65.57-75.87,13.17-6.16,27.34-10.69,42.53-13.6,34.82-6.68,72.46-8.39,107.89-8.05Z"/>
      <path class="cls-1" d="m804.83,1033.98h-.37v-.08c0-.06-.03-.09-.09-.09-118.15-.11-236.3-.12-354.45-.03-.22.03-.42,0-.61-.06-.25-.1-.36-.28-.32-.55l103.67-740.73c.06-.41.41-.72.83-.72h356.46c.13,0,.23.11.23.24,0,.01,0,.02,0,.03l-20.98,150.17c-.05.39-.28.59-.68.59h-180.85c-.36,0-.56.18-.61.53l-18.72,136.02c-.04.31.17.6.48.64.03,0,.06,0,.09,0h161.96c.22,0,.39.17.39.4,0,.02,0,.04,0,.05l-20.97,150.11c-.04.33-.33.58-.67.58h-161.86c-.42-.01-.66.2-.71.61l-21.86,152.97c-.03.19.1.36.29.39.02,0,.04,0,.05,0l180.89-.05c.46,0,.66.23.6.69l-20.57,147.33c-.05.33-.23.54-.54.63l-1.08.32Zm-120.79-450c-.23,0-.42-.19-.41-.43,0-.02,0-.04,0-.05l19.85-144.41c.03-.21.21-.36.42-.36h181.29c.21,0,.39-.15.42-.36l19.85-142.17c.03-.23-.13-.44-.36-.48-.02,0-.04,0-.05,0h-348.32c-.21,0-.39.16-.42.37l-102.98,735.74c-.03.23.13.44.36.48.02,0,.04,0,.05,0l348.32.02c.21,0,.39-.15.42-.36l19.86-142.35c.03-.23-.13-.44-.36-.48-.02,0-.04,0-.05,0h-181.04c-.23-.01-.42-.2-.41-.44,0-.02,0-.04,0-.05l23.05-161.3c.03-.2.2-.36.41-.36h162.35c.21,0,.39-.15.42-.36l19.85-142.17c.03-.23-.13-.44-.36-.48-.02,0-.04,0-.05,0h-162.11Z"/>
      <path class="cls-1" d="m1634.06,724.28l-19.83-344.21c-.01-.29.1-.53.34-.7,17.65-12.71,33.36-23.78,47.13-33.21,1.79-1.22,3.85-2.48,6.2-3.79.05-.03.12-.01.15.04,0,.02.02.04.02.06l10.36,348.03c0,.32-.13.63-.37.84l-38.15,33.01c-.35.3-.79.46-1.25.46h-4.04c-.35,0-.54-.18-.56-.53Zm3.82-4.36c.01.19.18.34.37.33.08,0,.15-.04.21-.09l35.7-30.89c.08-.07.13-.17.13-.28l-10.14-339.01c0-.19-.17-.34-.37-.33-.07,0-.13.02-.18.06l-45,31.72c-.1.07-.15.18-.15.3l19.43,338.19Z"/>
      <path class="cls-1" d="m184.79,806.6c16.29-115.62,32.54-231.16,48.75-346.62.93-6.61,2.78-12.73,5.56-18.35,4.83-9.75,17.45-13.01,27.62-13.28,10.51-.29,19.68-.28,27.51.02,5.55.21,10.85,1.46,15.89,3.73,5.21,2.35,7.88,6.26,8.74,11.73.81,5.13.82,10.55.02,16.26-18.95,134.77-38.05,270.62-57.31,407.53-.77,5.5-2.25,10.81-4.43,15.92-2.65,6.21-7.04,10.41-13.19,12.62-10.91,3.91-21.47,3.68-32.68,3.58-11.29-.1-18.77-.04-27.41-4.2-8.86-4.27-9.07-16.39-7.92-24.87,2.65-19.65,5.6-41,8.85-64.07Zm69.29,73.58c1.67-4.47,2.8-8.82,3.4-13.07,18.97-134.87,38.07-270.69,57.3-407.47.88-6.27,1.33-13.7-1.36-19.36-2.49-5.23-12.69-7.35-17.57-7.67-5.83-.37-12.26-.5-19.29-.38-8.11.13-12.31.04-18.37,1.35-5.01,1.08-11.36,3.37-14.11,7.88-3.23,5.29-5.34,11.38-6.31,18.26-19.15,136.17-38.31,272.37-57.46,408.6-.89,6.39-1.93,18.89,4.01,22.63,4.4,2.77,9.78,4.24,16.14,4.39,7.91.2,16,.24,24.26.11,6.61-.1,12.6-1.17,17.96-3.22,5.92-2.27,9.24-6.26,11.4-12.05Z"/>
    </g>
  </g>
</svg>