<?xml version="1.0" encoding="UTF-8"?>
<svg id="Capa_2" data-name="Capa 2" xmlns="http://www.w3.org/2000/svg" viewBox="0 0 181.11 98.17">
  <defs>
    <style>
      .cls-1 {
        fill: #fff;
        stroke-width: 0px;
      }
    </style>
  </defs>
  <g id="Capa_1-2" data-name="Capa 1">
    <g>
      <path class="cls-1" d="m179.25,13.74l-28.6,18.05c-.09.05-.2.06-.29.02l-29.79-13.2c-.16-.07-.22-.26-.15-.41.02-.05.06-.1.11-.13L148.31.05c.09-.05.2-.06.29-.02l30.61,13.17c.16.07.22.26.15.41-.02.05-.06.1-.11.13Zm-10.52.93c.16-.09.21-.29.12-.45-.04-.06-.09-.11-.16-.14l-20.02-8.59c-.1-.04-.22-.03-.31.03l-18.1,11.74c-.15.1-.2.3-.1.46.04.05.09.1.15.12l19.52,8.65c.1.05.22.04.31-.02l18.59-11.8Z"/>
      <path class="cls-1" d="m176.32,26.38c.01-.15-.1-.29-.25-.3-.06,0-.12,0-.18.04-5.43,3.47-10.84,7.12-16.25,10.93-.02.02-.05.01-.07,0,0,0,0-.01,0-.02-.14-.43-.23-2.1-.26-5.01,0-.18.07-.32.22-.42l15.18-9.98c.35-.23.72-.25,1.09-.06l4.84,2.43c.36.18.52.47.47.87-.7,6.19-1.35,12.34-1.94,18.44-.25,2.6-2.52,8.04-4.7,9.6-4.75,3.41-9.51,7.13-14.26,11.14-.04.04-.1.04-.14,0-.02-.02-.03-.05-.03-.08l-.11-5.08c0-.16.05-.29.18-.38l14.1-10.69c.29-.22.48-.56.51-.94l1.61-20.48Z"/>
      <path class="cls-1" d="m146.36,52.44l-14.78-7.5c-.11-.06-.17-.17-.16-.29l.41-4c.02-.16.16-.29.33-.27.04,0,.07.01.1.03l13.18,6.55c.15.07.33.01.4-.14.03-.05.04-.11.03-.17l-.8-7.27c-.01-.11-.08-.2-.18-.24l-13.12-5.97c-.07-.03-.12-.08-.15-.15l-2.63-5.65c-.07-.15,0-.33.14-.4.08-.04.18-.04.26,0l19.6,9.04c.09.04.16.14.17.24l2.69,31.57c0,.17-.12.31-.28.31-.05,0-.11,0-.16-.03l-21.42-12.05c-.11-.06-.17-.18-.15-.3l.49-3.82c.02-.16.17-.28.33-.26.04,0,.07.02.11.03l16.1,8.6c.15.08.33.02.41-.12.03-.05.04-.11.03-.17l-.78-7.34c-.01-.1-.08-.19-.17-.23Z"/>
      <path class="cls-1" d="m7.95,97.37C-.12,96.12-.57,89.15.33,82.75c1.9-13.55,3.77-26.85,5.62-39.91,1.43-10.15,5.26-14.9,16-15.43,5.22-.26,10.24-.17,15.06.27,8.94.83,10.1,6.89,9.1,14.51-1.85,14.02-3.8,27.76-5.86,41.23-1.13,7.32-3.83,12.73-11.73,13.95-6.88,1.06-13.74,1.06-20.57,0Zm8.43-14.93c-.19,1.32.73,2.54,2.04,2.73.15.02.3.03.45.02l3.26-.14c1.16-.05,2.12-.93,2.28-2.08l5.62-39.99c.18-1.32-.74-2.54-2.06-2.72-.13-.02-.27-.03-.4-.02l-3.24.1c-1.17.04-2.15.91-2.31,2.07l-5.64,40.03Z"/>
      <path class="cls-1" d="m107.8,40.38h-1.58c-1.67,0-2.66.82-2.98,2.45-.5,2.59-.78,4.93-.85,7-.05,1.49.85,2.86,2.23,3.4,4.37,1.71,8.56,3.35,12.58,4.93,5.73,2.24,6.26,7.3,5.52,12.73-.65,4.75-1.37,9.27-2.14,13.56-1.22,6.7-3.93,11.74-11.32,12.89-7.49,1.17-14.53,1.11-21.13-.19-5.18-1.02-7.28-4.98-7.03-9.99.23-4.39.71-8.66,1.44-12.79.07-.38.29-.57.67-.56h15.01c.39,0,.55.19.5.57l-1.08,7.96c-.23,1.74.53,2.61,2.29,2.62h1.99c1.67,0,2.63-.81,2.88-2.46.37-2.46.71-5,1.04-7.62.24-2-.62-3.36-2.59-4.08-4.12-1.52-8.07-3.09-11.84-4.72-5.74-2.48-6.67-7.49-5.89-13.13.65-4.61,1.38-9.15,2.19-13.64,1.36-7.48,6.29-11.43,14.78-11.85,6.8-.34,12.21-.16,16.22.53,5.35.93,7.98,4.1,7.88,9.53-.08,4.14-.56,8.6-1.44,13.38-.07.37-.29.55-.66.55h-15.02c-.37,0-.53-.19-.48-.56l1.07-7.92c.23-1.73-.52-2.59-2.26-2.59Z"/>
      <path class="cls-1" d="m65.04,55.1h14.79c.17-.01.31.13.31.3,0,.01,0,.03,0,.04l-1.8,12.95c-.02.16-.15.27-.31.27h-14.97c-.16,0-.29.11-.31.27l-2.12,14.83c-.02.17.1.33.27.35.01,0,.03,0,.04,0h16.59c.17,0,.31.14.31.31,0,.01,0,.03,0,.04l-1.8,12.94c-.02.16-.15.27-.31.27h-32.59c-.17,0-.31-.14-.31-.31,0-.01,0-.03,0-.04l9.71-69.41c.02-.16.15-.27.31-.27h32.59c.17,0,.31.14.31.31,0,.01,0,.03,0,.04l-1.82,13.03c-.02.16-.15.27-.31.27l-16.76-.03c-.16,0-.29.11-.31.27l-1.82,13.22c-.02.17.1.33.27.35.01,0,.03,0,.04,0Z"/>
      <path class="cls-1" d="m155.41,67.46l-1.82-31.49c0-.11.04-.21.13-.27l3.76-2.6c.14-.1.33-.07.43.07.04.05.06.11.06.17l.93,31.6c0,.1-.04.19-.11.25l-2.86,2.49c-.13.12-.32.11-.44-.02-.05-.06-.08-.13-.08-.2Z"/>
    </g>
  </g>
</svg>