<?xml version="1.0" encoding="UTF-8"?>
<svg id="Capa_2" data-name="Capa 2" xmlns="http://www.w3.org/2000/svg" viewBox="0 0 77.34 70.98">
  <defs>
    <style>
      .cls-1 {
        fill: #fff;
        stroke-width: 0px;
      }
    </style>
  </defs>
  <g id="Capa_1-2" data-name="Capa 1">
    <g id="Layer_11" data-name="Layer 11">
      <g>
        <g>
          <g>
            <path class="cls-1" d="m31.61,70.98c-.18,0-.36-.04-.53-.12-.08-.04-8.56-4.13-16.65-13.04-4.53-4.99-8.06-10.52-10.48-16.43C.94,34.04-.36,26.07.09,17.71c.03-.59.47-1.08,1.06-1.17,7.78-1.18,15.01-4.14,21.49-8.8,4.6-3.31,7.29-6.41,8.01-7.28.24-.29.59-.46.97-.46s.73.17.97.46l.05.06c1.41,1.74,6.76,7.75,16.17,12.03.63.28.9,1.02.62,1.65s-1.02.9-1.65.62c-4.48-2.04-8.6-4.66-12.24-7.81-1.06-.92-2.53-2.27-3.93-3.85-1.36,1.49-3.88,4-7.5,6.61-3,2.16-6.22,4-9.57,5.47-3.84,1.69-7.87,2.9-11.99,3.61-.52,14.14,4.11,26.68,13.75,37.3,3.1,3.41,6.76,6.62,10.59,9.26,2.22,1.54,3.93,2.49,4.74,2.92,1.61-.84,6.67-3.7,12.11-8.83,8.39-7.9,13.74-17.24,15.9-27.77.14-.68.8-1.11,1.47-.97.68.14,1.11.8.97,1.47-1.24,6.06-3.54,11.84-6.84,17.17-2.65,4.28-5.94,8.29-9.79,11.91-6.97,6.56-13.24,9.51-13.3,9.54-.17.08-.35.12-.53.12h0Z"/>
            <path class="cls-1" d="m31.61,63.68c-.18,0-.36-.04-.53-.12-.07-.03-6.79-3.27-13.19-10.32-3.59-3.95-6.38-8.33-8.3-13.01-2.39-5.82-3.42-12.13-3.06-18.75.03-.59.47-1.08,1.06-1.17,6.08-.92,11.73-3.23,16.8-6.88,3.6-2.59,5.69-5.01,6.25-5.69.24-.29.59-.46.97-.46s.73.17.97.46l.05.06c1.35,1.67,6.48,7.38,15.57,10.6.65.23.99.94.76,1.59-.23.65-.94.99-1.59.76-4.39-1.56-8.42-3.82-11.97-6.73-1.03-.84-2.45-2.09-3.8-3.59-1.12,1.2-3.04,3.07-5.74,5.02-2.38,1.71-4.93,3.17-7.58,4.33-2.97,1.31-6.09,2.25-9.28,2.82-.35,10.97,3.27,20.7,10.76,28.95,5.05,5.57,10.23,8.59,11.87,9.47,1.44-.77,5.61-3.17,9.96-7.4,6.86-6.68,10.99-14.59,12.25-23.53.1-.68.73-1.16,1.41-1.06.68.1,1.16.73,1.06,1.41-3.27,23.15-23.94,33.02-24.15,33.12-.17.08-.35.11-.53.11h0Z"/>
          </g>
          <path class="cls-1" d="m61.88,33.27c-4.13,0-8.01-1.61-10.93-4.53-2.92-2.92-4.53-6.8-4.53-10.93s1.61-8.01,4.53-10.93c2.92-2.92,6.8-4.53,10.93-4.53s8.01,1.61,10.93,4.53c2.92,2.92,4.53,6.8,4.53,10.93s-1.61,8.01-4.53,10.93c-2.92,2.92-6.8,4.53-10.93,4.53Zm0-28.41c-7.15,0-12.96,5.81-12.96,12.96s5.82,12.96,12.96,12.96,12.96-5.81,12.96-12.96-5.82-12.96-12.96-12.96h0Z"/>
          <path class="cls-1" d="m57.96,23.85c-.34,0-.67-.14-.92-.4l-3.3-3.59c-.47-.51-.43-1.3.07-1.76s1.3-.43,1.76.07l2.48,2.7,10.22-8.79c.52-.45,1.31-.39,1.76.13s.39,1.31-.13,1.76l-11.14,9.58c-.24.2-.52.3-.81.3Z"/>
        </g>
        <g>
          <path class="cls-1" d="m32.28,42.27c-3.78,0-6.85-3.07-6.85-6.85s3.07-6.85,6.85-6.85,6.85,3.07,6.85,6.85-3.07,6.85-6.85,6.85Zm0-11.2c-2.4,0-4.35,1.95-4.35,4.35s1.95,4.35,4.35,4.35,4.35-1.95,4.35-4.35-1.95-4.35-4.35-4.35Z"/>
          <path class="cls-1" d="m33.85,50.6h-3.79c-.64,0-1.17-.48-1.24-1.11l-.31-2.76c-.72-.24-1.42-.55-2.08-.92l-2.11,1.69c-.5.4-1.21.36-1.66-.09l-2.68-2.68c-.45-.45-.49-1.16-.09-1.66l1.78-2.22c-.34-.66-.61-1.36-.82-2.07l-2.72-.3c-.63-.07-1.11-.6-1.11-1.24v-3.79c0-.64.48-1.17,1.11-1.24l2.78-.31c.23-.73.52-1.44.89-2.11l-1.66-2.08c-.4-.5-.36-1.21.09-1.66l2.68-2.68c.45-.45,1.16-.49,1.66-.09l2.08,1.66c.71-.39,1.46-.69,2.24-.93l.28-2.5c.07-.63.6-1.11,1.24-1.11h3.79c.64,0,1.17.48,1.24,1.11l.28,2.5c.82.24,1.6.57,2.35.99l1.87-1.49c.5-.4,1.21-.36,1.66.09l2.68,2.68c.45.45.49,1.16.09,1.66l-1.53,1.92c.41.77.73,1.58.96,2.42l2.34.26c.63.07,1.11.6,1.11,1.24v3.79c0,.64-.48,1.17-1.11,1.24l-2.49.28c-.26.81-.6,1.59-1.03,2.32l1.52,1.9c.4.5.36,1.21-.09,1.66l-2.68,2.68c-.45.45-1.16.49-1.66.09l-2.06-1.65c-.72.36-1.47.65-2.25.86l-.29,2.56c-.07.63-.6,1.11-1.24,1.11h0Zm-2.68-2.49h1.56l.26-2.33c.06-.55.47-.99,1.01-1.09,1.1-.2,2.15-.6,3.11-1.17.45-.27,1.01-.23,1.42.1l1.84,1.47,1.1-1.1-1.38-1.72c-.34-.43-.36-1.03-.05-1.49.66-.96,1.13-2.01,1.4-3.14.12-.51.55-.89,1.07-.95l2.21-.25v-1.56l-2.11-.23c-.54-.06-.98-.47-1.09-1.01-.22-1.15-.65-2.24-1.28-3.24-.28-.45-.25-1.03.08-1.44l1.37-1.71-1.1-1.1-1.68,1.34c-.42.34-1.01.36-1.47.07-.97-.64-2.04-1.09-3.17-1.34-.52-.11-.92-.55-.98-1.08l-.25-2.25h-1.56l-.25,2.25c-.06.53-.45.97-.98,1.08-1.1.24-2.13.67-3.08,1.27-.45.29-1.03.26-1.45-.08l-1.88-1.5-1.1,1.1,1.5,1.88c.33.42.36,1,.08,1.45-.59.91-1.01,1.91-1.25,2.97-.12.52-.55.9-1.08.96l-2.51.28v1.56l2.47.28c.54.06.97.46,1.08.98.22,1.04.61,2.03,1.17,2.95.27.45.24,1.02-.09,1.43l-1.6,2,1.1,1.1,1.92-1.54c.43-.34,1.02-.36,1.47-.06.9.6,1.89,1.04,2.93,1.31.5.13.88.55.93,1.07l.28,2.48Z"/>
        </g>
      </g>
    </g>
  </g>
</svg>