<?xml version="1.0" encoding="UTF-8"?>
<svg id="Capa_2" data-name="Capa 2" xmlns="http://www.w3.org/2000/svg" viewBox="0 0 78.97 70.19">
  <defs>
    <style>
      .cls-1 {
        fill: #fff;
        stroke-width: 0px;
      }
    </style>
  </defs>
  <g id="Capa_1-2" data-name="Capa 1">
    <g>
      <path class="cls-1" d="m32.6,23.83l-2.86,2.86-3.54-8.25c-.79-1.75-3.41-.63-2.69,1.15l4.39,10.24c.37.93,1.69,1.19,2.38.46l4.39-4.39c1.34-1.36-.71-3.41-2.07-2.07h0Z"/>
      <path class="cls-1" d="m71.66,35.1h-13.75C61.73,17.29,47.5-.21,29.25,0,13.12,0,0,13.12,0,29.25c-.32,19.38,19.67,34.02,38.02,27.88v5.76c0,4.03,3.28,7.31,7.31,7.31h26.32c4.03,0,7.31-3.28,7.31-7.31v-20.47c0-4.03-3.28-7.31-7.31-7.31Zm-33.63,18.94C21.39,60.31,2.6,47.05,2.93,29.25c0-14.51,11.81-26.32,26.32-26.32,16.64-.21,29.56,16.02,25.65,32.17h-3c3.95-14.49-7.6-29.46-22.65-29.25-12.9,0-23.4,10.5-23.4,23.4-.32,16.25,17.25,28.05,32.17,21.68v3.11Zm0-11.62v5.3c-2.32,1.1-4.76,1.74-7.31,1.92v-1.38c0-.81-.65-1.46-1.46-1.46s-1.46.65-1.46,1.46v1.39c-10.12-.72-18.22-8.81-18.94-18.94h1.39c.81,0,1.46-.65,1.46-1.46s-.65-1.46-1.46-1.46h-1.39c.72-10.12,8.81-18.22,18.94-18.94v1.39c0,.81.65,1.46,1.46,1.46s1.46-.65,1.46-1.46v-1.39c10.12.72,18.22,8.81,18.94,18.94h-1.39c-.81,0-1.46.65-1.46,1.46s.65,1.46,1.46,1.46h1.4c-.11,1.5-.38,2.96-.81,4.39h-3.51c-4.03,0-7.31,3.28-7.31,7.31h0Zm38.02,20.47c0,2.42-1.97,4.39-4.39,4.39h-26.32c-2.42,0-4.39-1.97-4.39-4.39v-20.47c0-2.42,1.97-4.39,4.39-4.39h26.32c2.42,0,4.39,1.97,4.39,4.39v20.47Z"/>
      <path class="cls-1" d="m63.07,44.42l-7.13,7.13-2.02-2.02c-4.19-3.98-10.19,2.01-6.2,6.2l5.12,5.12c1.63,1.7,4.57,1.7,6.2,0l10.24-10.24c3.98-4.19-2-10.19-6.2-6.2h0Zm4.14,4.14l-10.24,10.24c-.55.55-1.51.55-2.07,0l-5.12-5.12c-.57-.57-.57-1.5,0-2.07.57-.57,1.5-.57,2.07,0l3.05,3.05c.57.57,1.5.57,2.07,0l8.17-8.17c1.35-1.34,3.42.71,2.07,2.07Z"/>
    </g>
  </g>
</svg>