<?xml version="1.0" encoding="UTF-8"?>
<svg id="Capa_2" data-name="Capa 2" xmlns="http://www.w3.org/2000/svg" viewBox="0 0 59.68 74">
  <defs>
    <style>
      .cls-1 {
        fill: #fff;
        stroke-width: 0px;
      }
    </style>
  </defs>
  <g id="Capa_1-2" data-name="Capa 1">
    <g>
      <path class="cls-1" d="m56.1,0h-16.71c-1.97,0-3.58,1.61-3.58,3.58v2.39c-2.63,0-4.77,2.14-4.77,4.77s2.14,4.77,4.77,4.77v5.97h9.55v-2.39c0-1.32,1.07-2.39,2.39-2.39s2.39,1.07,2.39,2.39v2.39h5.97c1.97,0,3.58-1.61,3.58-3.58V3.58c0-1.97-1.61-3.58-3.58-3.58Zm1.19,17.9c0,.66-.53,1.19-1.19,1.19h-3.58c0-2.63-2.14-4.77-4.77-4.77s-4.77,2.14-4.77,4.77h-4.77v-5.97h-2.39c-1.32,0-2.39-1.07-2.39-2.39s1.07-2.39,2.39-2.39h2.39V3.58c0-.66.53-1.19,1.19-1.19h16.71c.66,0,1.19.54,1.19,1.19v14.32Z"/>
      <path class="cls-1" d="m35.81,23.87c-2.63,0-4.77,2.14-4.77,4.77h-4.77v-5.97h-2.39c-1.32,0-2.39-1.07-2.39-2.39s1.07-2.39,2.39-2.39h2.39V7.16h-3.2C10.34,7.16,0,17.51,0,30.22c0,6.94,3.08,13.45,8.46,17.85l4.67,3.82v3.24c-1.39.49-2.39,1.81-2.39,3.36,0,1.65,1.13,3.03,2.65,3.44-.17.41-.26.86-.26,1.33,0,1.58,1.03,2.91,2.45,3.38.49,4.14,4.02,7.36,8.29,7.36s7.8-3.22,8.29-7.36c1.42-.48,2.45-1.8,2.45-3.38,0-.47-.1-.92-.26-1.33,1.52-.41,2.65-1.79,2.65-3.44,0-1.55-1-2.87-2.39-3.36v-3.24l4.67-3.82c5.37-4.4,8.46-10.9,8.46-17.84v-1.57h-7.16c0-2.63-2.14-4.77-4.77-4.77Zm-12.75-14.32h.81v5.97c-2.63,0-4.77,2.14-4.77,4.77s2.14,4.77,4.77,4.77v3.58h-4.77c0-2.63-2.14-4.77-4.77-4.77s-4.77,2.14-4.77,4.77H2.45c.81-10.67,9.74-19.1,20.61-19.1Zm-13.09,36.67c-4.61-3.77-7.34-9.27-7.56-15.19h9.53v-2.39c0-1.32,1.07-2.39,2.39-2.39s2.39,1.07,2.39,2.39v2.39h7.16v4.77c-2.63,0-4.77,2.14-4.77,4.77s2.14,4.77,4.77,4.77v9.55h-8.35v-4.15l-5.55-4.54Zm13.9,25.4c-2.88,0-5.29-2.05-5.85-4.77h11.69c-.56,2.72-2.97,4.77-5.85,4.77Zm7.16-7.16h-14.32c-.66,0-1.19-.54-1.19-1.19s.53-1.19,1.19-1.19h14.32c.66,0,1.19.54,1.19,1.19s-.53,1.19-1.19,1.19Zm2.39-4.77H14.32c-.66,0-1.19-.54-1.19-1.19s.53-1.19,1.19-1.19h19.1c.66,0,1.19.54,1.19,1.19s-.53,1.19-1.19,1.19Zm4.35-13.46l-5.55,4.54v4.15h-5.97v-11.94h-2.39c-1.32,0-2.39-1.07-2.39-2.39s1.07-2.39,2.39-2.39h2.39v-7.16h7.16v-2.39c0-1.32,1.07-2.39,2.39-2.39s2.39,1.07,2.39,2.39v2.39h7.14c-.23,5.92-2.96,11.42-7.56,15.19Z"/>
    </g>
  </g>
</svg>